<svg xmlns="http://www.w3.org/2000/svg" width="1200" height="720"><rect width="1200" height="720" fill="white"/><title>Review-quality sensitivity</title><text x="600" y="35" text-anchor="middle" font-size="18" font-weight="bold">SYNTHETIC BENCHMARK — NOT CUSTOMER OR PRODUCTION EVIDENCE</text><text x="600" y="72" text-anchor="middle" font-size="25">Review-quality sensitivity</text><path d="M90 100V620H1120" stroke="#222" fill="none"/><text x="600" y="690" text-anchor="middle">cycle · budget 2048 estimated tokens</text><text x="22" y="370" transform="rotate(-90 22 370)" text-anchor="middle">continuity recall</text><polyline fill="none" stroke="#16853b" stroke-width="4" points="110,610 245,150 380,150 515,150 650,150 785,150 920,150 1055,150"/><text x="900" y="120" fill="#16853b">100</text><polyline fill="none" stroke="#2271b2" stroke-width="4" points="110,610 245,170.44448533333338 380,170.44439333333332 515,167.03711199999992 650,163.629708 785,165.3334253333333 920,167.03714266666657 1055,168.74082933333324"/><text x="900" y="148" fill="#2271b2">95</text><polyline fill="none" stroke="#7a55a3" stroke-width="4" points="110,610 245,185.7778493333334 380,201.1110906666666 515,192.59265733333325 650,187.4815666666666 785,184.0741626666666 920,196.0000613333333 1055,189.1852533333332"/><text x="900" y="176" fill="#7a55a3">90</text><polyline fill="none" stroke="#d17a00" stroke-width="4" points="110,610 245,242 380,254.7778186666667 515,242.0000306666667 650,247.11118266666665 785,219.85192000000006 920,235.18522266666662 1055,235.18522266666662"/><text x="900" y="204" fill="#d17a00">80</text><polyline fill="none" stroke="#c52828" stroke-width="4" points="110,610 245,354.4444546666667 380,349.3333333333333 515,357.85185866666666 650,342.51843333333335 785,322.0740706666667 920,344.22221200000007 1055,330.5925653333333"/><text x="900" y="232" fill="#c52828">stale-biased</text><text x="1080" y="675" text-anchor="end" font-size="12">scenario × seed means; 95% CI in statistical-summary.json</text></svg>
